<mxfile host="app.diagrams.net" agent="Mozilla/5.0 (Windows NT 10.0; Win64; x64) AppleWebKit/537.36 (KHTML, like Gecko) Chrome/129.0.0.0 Safari/537.36" version="24.7.13">
  <diagram name="Page-1" id="dqRAxvLRvMN8-dRZfgtG">
    <mxGraphModel dx="2100" dy="1044" grid="1" gridSize="10" guides="1" tooltips="1" connect="1" arrows="1" fold="1" page="1" pageScale="1" pageWidth="2000" pageHeight="3000" math="0" shadow="0">
      <root>
        <mxCell id="0" />
        <mxCell id="1" parent="0" />
        <mxCell id="7NwF8X2GStmhDMiwvxx_-11" value="" style="rounded=1;whiteSpace=wrap;html=1;arcSize=11;fillColor=#d5e8d4;strokeColor=#82b366;" vertex="1" parent="1">
          <mxGeometry x="1140" y="390" width="400" height="480" as="geometry" />
        </mxCell>
        <mxCell id="7NwF8X2GStmhDMiwvxx_-12" value="&lt;b&gt;&lt;font style=&quot;font-size: 17px;&quot;&gt;Backend Logic&lt;/font&gt;&lt;/b&gt;" style="text;html=1;align=center;verticalAlign=middle;whiteSpace=wrap;rounded=0;" vertex="1" parent="1">
          <mxGeometry x="1260" y="400" width="180" height="30" as="geometry" />
        </mxCell>
        <mxCell id="7NwF8X2GStmhDMiwvxx_-13" value="" style="rounded=1;whiteSpace=wrap;html=1;fillColor=#ffe6cc;strokeColor=#d79b00;" vertex="1" parent="1">
          <mxGeometry x="1170" y="440" width="190" height="220" as="geometry" />
        </mxCell>
        <mxCell id="7NwF8X2GStmhDMiwvxx_-14" value="&lt;font style=&quot;font-size: 15px;&quot;&gt;Numpy&lt;/font&gt;" style="rounded=1;whiteSpace=wrap;html=1;fillColor=#f5f5f5;strokeColor=#666666;fontColor=#333333;" vertex="1" parent="1">
          <mxGeometry x="1205" y="470" width="115" height="60" as="geometry" />
        </mxCell>
        <mxCell id="7NwF8X2GStmhDMiwvxx_-15" value="&lt;font style=&quot;font-size: 15px;&quot;&gt;Pandas&lt;/font&gt;" style="rounded=1;whiteSpace=wrap;html=1;fillColor=#f5f5f5;strokeColor=#666666;fontColor=#333333;" vertex="1" parent="1">
          <mxGeometry x="1205" y="570" width="120" height="60" as="geometry" />
        </mxCell>
        <mxCell id="7NwF8X2GStmhDMiwvxx_-16" value="&lt;font style=&quot;font-size: 15px;&quot;&gt;&lt;b&gt;Core Libraries&lt;/b&gt;&lt;/font&gt;" style="text;html=1;align=center;verticalAlign=middle;whiteSpace=wrap;rounded=0;" vertex="1" parent="1">
          <mxGeometry x="1210" y="440" width="110" height="30" as="geometry" />
        </mxCell>
        <mxCell id="7NwF8X2GStmhDMiwvxx_-17" value="&lt;font style=&quot;font-size: 15px;&quot;&gt;File Handler&amp;nbsp;&lt;/font&gt;&lt;div style=&quot;font-size: 15px;&quot;&gt;&lt;font style=&quot;font-size: 15px;&quot;&gt;(CSV/XLSX)&lt;/font&gt;&lt;/div&gt;" style="rounded=1;whiteSpace=wrap;html=1;fillColor=#ffe6cc;strokeColor=#d79b00;" vertex="1" parent="1">
          <mxGeometry x="1400" y="510" width="120" height="60" as="geometry" />
        </mxCell>
        <mxCell id="7NwF8X2GStmhDMiwvxx_-94" style="edgeStyle=orthogonalEdgeStyle;rounded=0;orthogonalLoop=1;jettySize=auto;html=1;exitX=0.5;exitY=1;exitDx=0;exitDy=0;entryX=0.5;entryY=0;entryDx=0;entryDy=0;" edge="1" parent="1" source="7NwF8X2GStmhDMiwvxx_-18" target="7NwF8X2GStmhDMiwvxx_-19">
          <mxGeometry relative="1" as="geometry" />
        </mxCell>
        <mxCell id="7NwF8X2GStmhDMiwvxx_-18" value="&lt;font style=&quot;font-size: 15px;&quot;&gt;Data Processor&lt;/font&gt;" style="rounded=1;whiteSpace=wrap;html=1;fillColor=#ffe6cc;strokeColor=#d79b00;" vertex="1" parent="1">
          <mxGeometry x="1250" y="690" width="120" height="60" as="geometry" />
        </mxCell>
        <mxCell id="7NwF8X2GStmhDMiwvxx_-19" value="&lt;font style=&quot;font-size: 15px;&quot;&gt;Analytics Generator&lt;/font&gt;" style="rounded=1;whiteSpace=wrap;html=1;fillColor=#ffe6cc;strokeColor=#d79b00;" vertex="1" parent="1">
          <mxGeometry x="1250" y="780" width="120" height="60" as="geometry" />
        </mxCell>
        <mxCell id="7NwF8X2GStmhDMiwvxx_-20" value="" style="rounded=1;whiteSpace=wrap;html=1;arcSize=7;fillColor=#d5e8d4;strokeColor=#82b366;" vertex="1" parent="1">
          <mxGeometry x="1140" y="890" width="400" height="330" as="geometry" />
        </mxCell>
        <mxCell id="7NwF8X2GStmhDMiwvxx_-21" value="&lt;font style=&quot;font-size: 17px;&quot;&gt;&lt;b&gt;Visualization Engine: Ploty&lt;/b&gt;&lt;/font&gt;" style="text;html=1;align=center;verticalAlign=middle;whiteSpace=wrap;rounded=0;" vertex="1" parent="1">
          <mxGeometry x="1230" y="895" width="240" height="30" as="geometry" />
        </mxCell>
        <mxCell id="7NwF8X2GStmhDMiwvxx_-22" value="&lt;font style=&quot;font-size: 15px;&quot;&gt;Plot Generator&lt;/font&gt;" style="rounded=1;whiteSpace=wrap;html=1;fillColor=#ffe6cc;strokeColor=#d79b00;" vertex="1" parent="1">
          <mxGeometry x="1190" y="940" width="120" height="60" as="geometry" />
        </mxCell>
        <mxCell id="7NwF8X2GStmhDMiwvxx_-23" value="&lt;font style=&quot;font-size: 15px;&quot;&gt;Interactive Controls&lt;/font&gt;" style="rounded=1;whiteSpace=wrap;html=1;fillColor=#ffe6cc;strokeColor=#d79b00;" vertex="1" parent="1">
          <mxGeometry x="1370" y="1010" width="140" height="60" as="geometry" />
        </mxCell>
        <mxCell id="7NwF8X2GStmhDMiwvxx_-24" value="&lt;font style=&quot;font-size: 15px;&quot;&gt;Download option&lt;/font&gt;" style="rounded=1;whiteSpace=wrap;html=1;fillColor=#ffe6cc;strokeColor=#d79b00;" vertex="1" parent="1">
          <mxGeometry x="1230" y="1100" width="120" height="60" as="geometry" />
        </mxCell>
        <mxCell id="7NwF8X2GStmhDMiwvxx_-25" style="edgeStyle=orthogonalEdgeStyle;rounded=0;orthogonalLoop=1;jettySize=auto;html=1;exitX=0.5;exitY=1;exitDx=0;exitDy=0;" edge="1" parent="1" source="7NwF8X2GStmhDMiwvxx_-11" target="7NwF8X2GStmhDMiwvxx_-11">
          <mxGeometry relative="1" as="geometry" />
        </mxCell>
        <mxCell id="7NwF8X2GStmhDMiwvxx_-59" value="" style="rounded=1;whiteSpace=wrap;html=1;arcSize=6;fillColor=#dae8fc;strokeColor=#6c8ebf;" vertex="1" parent="1">
          <mxGeometry x="110" y="390" width="1010" height="970" as="geometry" />
        </mxCell>
        <mxCell id="7NwF8X2GStmhDMiwvxx_-60" value="" style="rounded=1;whiteSpace=wrap;html=1;arcSize=6;fillColor=#dae8fc;strokeColor=#6c8ebf;" vertex="1" parent="1">
          <mxGeometry x="125" y="420" width="980" height="920" as="geometry" />
        </mxCell>
        <mxCell id="7NwF8X2GStmhDMiwvxx_-61" value="&lt;font style=&quot;font-size: 17px;&quot;&gt;&lt;b&gt;About Page&lt;/b&gt;&lt;/font&gt;" style="rounded=1;whiteSpace=wrap;html=1;fillColor=#ffe6cc;strokeColor=#d79b00;" vertex="1" parent="1">
          <mxGeometry x="550" y="485" width="120" height="60" as="geometry" />
        </mxCell>
        <mxCell id="7NwF8X2GStmhDMiwvxx_-62" value="&lt;font style=&quot;font-size: 17px;&quot;&gt;&lt;b&gt;Upload Page&lt;/b&gt;&lt;/font&gt;&lt;div style=&quot;&quot;&gt;&lt;font style=&quot;font-size: 15px;&quot;&gt;(CSV/XLSX Upload + Sample Data Disply)&lt;/font&gt;&lt;/div&gt;" style="rounded=1;whiteSpace=wrap;html=1;fillColor=#ffe6cc;strokeColor=#d79b00;" vertex="1" parent="1">
          <mxGeometry x="520" y="605" width="180" height="80" as="geometry" />
        </mxCell>
        <mxCell id="7NwF8X2GStmhDMiwvxx_-63" value="" style="rounded=1;whiteSpace=wrap;html=1;fillColor=#ffe6cc;strokeColor=#d79b00;" vertex="1" parent="1">
          <mxGeometry x="410" y="730" width="400" height="110" as="geometry" />
        </mxCell>
        <mxCell id="7NwF8X2GStmhDMiwvxx_-64" value="&lt;font style=&quot;font-size: 15px;&quot;&gt;Missing Value Analysis&lt;/font&gt;" style="rounded=1;whiteSpace=wrap;html=1;fillColor=#f5f5f5;fontColor=#333333;strokeColor=#666666;" vertex="1" parent="1">
          <mxGeometry x="440" y="760" width="160" height="60" as="geometry" />
        </mxCell>
        <mxCell id="7NwF8X2GStmhDMiwvxx_-65" value="&lt;font style=&quot;font-size: 15px;&quot;&gt;DataType Analysis&lt;/font&gt;" style="rounded=1;whiteSpace=wrap;html=1;fillColor=#f5f5f5;fontColor=#333333;strokeColor=#666666;" vertex="1" parent="1">
          <mxGeometry x="630" y="760" width="160" height="60" as="geometry" />
        </mxCell>
        <mxCell id="7NwF8X2GStmhDMiwvxx_-66" value="&lt;b&gt;&lt;font style=&quot;font-size: 17px;&quot;&gt;Dataset Analysis Page&lt;/font&gt;&lt;/b&gt;" style="text;html=1;align=center;verticalAlign=middle;whiteSpace=wrap;rounded=0;" vertex="1" parent="1">
          <mxGeometry x="485" y="730" width="250" height="30" as="geometry" />
        </mxCell>
        <mxCell id="7NwF8X2GStmhDMiwvxx_-67" value="" style="rounded=1;whiteSpace=wrap;html=1;fillColor=#ffe6cc;strokeColor=#d79b00;" vertex="1" parent="1">
          <mxGeometry x="180" y="910" width="860" height="310" as="geometry" />
        </mxCell>
        <mxCell id="7NwF8X2GStmhDMiwvxx_-68" value="" style="rounded=1;whiteSpace=wrap;html=1;fillColor=#f5f5f5;fontColor=#333333;strokeColor=#666666;" vertex="1" parent="1">
          <mxGeometry x="220" y="950" width="780" height="110" as="geometry" />
        </mxCell>
        <mxCell id="7NwF8X2GStmhDMiwvxx_-69" value="&lt;font style=&quot;font-size: 15px;&quot;&gt;Pie Chart&lt;/font&gt;" style="rounded=1;whiteSpace=wrap;html=1;fillColor=#fef7e1;strokeColor=#000000;" vertex="1" parent="1">
          <mxGeometry x="250" y="980" width="120" height="60" as="geometry" />
        </mxCell>
        <mxCell id="7NwF8X2GStmhDMiwvxx_-70" value="&lt;font style=&quot;font-size: 15px;&quot;&gt;Bar Chart&lt;/font&gt;" style="rounded=1;whiteSpace=wrap;html=1;fillColor=#fef7e1;strokeColor=#000000;" vertex="1" parent="1">
          <mxGeometry x="400" y="980" width="120" height="60" as="geometry" />
        </mxCell>
        <mxCell id="7NwF8X2GStmhDMiwvxx_-71" value="&lt;font style=&quot;font-size: 15px;&quot;&gt;Box Plot&lt;/font&gt;" style="rounded=1;whiteSpace=wrap;html=1;fillColor=#fef7e1;" vertex="1" parent="1">
          <mxGeometry x="550" y="980" width="120" height="60" as="geometry" />
        </mxCell>
        <mxCell id="7NwF8X2GStmhDMiwvxx_-72" value="&lt;font style=&quot;font-size: 15px;&quot;&gt;Line Graph&lt;/font&gt;" style="rounded=1;whiteSpace=wrap;html=1;fillColor=#fef7e1;" vertex="1" parent="1">
          <mxGeometry x="700" y="980" width="120" height="60" as="geometry" />
        </mxCell>
        <mxCell id="7NwF8X2GStmhDMiwvxx_-73" value="&lt;font style=&quot;font-size: 15px;&quot;&gt;Pivot Chart&lt;/font&gt;" style="rounded=1;whiteSpace=wrap;html=1;fillColor=#fef7e1;" vertex="1" parent="1">
          <mxGeometry x="850" y="980" width="120" height="60" as="geometry" />
        </mxCell>
        <mxCell id="7NwF8X2GStmhDMiwvxx_-74" value="" style="rounded=1;whiteSpace=wrap;html=1;fillColor=#f5f5f5;fontColor=#333333;strokeColor=#666666;" vertex="1" parent="1">
          <mxGeometry x="220" y="1080" width="780" height="110" as="geometry" />
        </mxCell>
        <mxCell id="7NwF8X2GStmhDMiwvxx_-75" value="&lt;font style=&quot;font-size: 15px;&quot;&gt;Histogram&lt;/font&gt;" style="rounded=1;whiteSpace=wrap;html=1;fillColor=#fef7e1;" vertex="1" parent="1">
          <mxGeometry x="250" y="1110" width="120" height="60" as="geometry" />
        </mxCell>
        <mxCell id="7NwF8X2GStmhDMiwvxx_-76" value="&lt;font style=&quot;font-size: 15px;&quot;&gt;Box Plot&lt;/font&gt;" style="rounded=1;whiteSpace=wrap;html=1;fillColor=#fef7e1;" vertex="1" parent="1">
          <mxGeometry x="400" y="1110" width="120" height="60" as="geometry" />
        </mxCell>
        <mxCell id="7NwF8X2GStmhDMiwvxx_-77" value="&lt;font style=&quot;font-size: 15px;&quot;&gt;Line Graph&lt;/font&gt;" style="rounded=1;whiteSpace=wrap;html=1;fillColor=#fef7e1;" vertex="1" parent="1">
          <mxGeometry x="550" y="1110" width="120" height="60" as="geometry" />
        </mxCell>
        <mxCell id="7NwF8X2GStmhDMiwvxx_-78" value="&lt;font style=&quot;font-size: 15px;&quot;&gt;Scatter Plot&lt;/font&gt;" style="rounded=1;whiteSpace=wrap;html=1;fillColor=#fef7e1;" vertex="1" parent="1">
          <mxGeometry x="700" y="1110" width="120" height="60" as="geometry" />
        </mxCell>
        <mxCell id="7NwF8X2GStmhDMiwvxx_-79" value="&lt;font style=&quot;font-size: 15px;&quot;&gt;Pivot Chart&lt;/font&gt;" style="rounded=1;whiteSpace=wrap;html=1;fillColor=#fef7e1;" vertex="1" parent="1">
          <mxGeometry x="850" y="1110" width="120" height="60" as="geometry" />
        </mxCell>
        <mxCell id="7NwF8X2GStmhDMiwvxx_-80" value="&lt;font style=&quot;font-size: 17px;&quot;&gt;&lt;b&gt;Correlation matrix page&lt;/b&gt;&lt;/font&gt;&lt;div style=&quot;font-size: 17px;&quot;&gt;&lt;font style=&quot;font-size: 17px;&quot;&gt;In Heatmap&lt;/font&gt;&lt;/div&gt;" style="rounded=1;whiteSpace=wrap;html=1;fillColor=#ffe6cc;strokeColor=#d79b00;" vertex="1" parent="1">
          <mxGeometry x="490" y="1260" width="240" height="60" as="geometry" />
        </mxCell>
        <mxCell id="7NwF8X2GStmhDMiwvxx_-81" value="" style="endArrow=classic;startArrow=classic;html=1;rounded=0;exitX=0.5;exitY=0;exitDx=0;exitDy=0;entryX=0.5;entryY=1;entryDx=0;entryDy=0;" edge="1" parent="1" source="7NwF8X2GStmhDMiwvxx_-62" target="7NwF8X2GStmhDMiwvxx_-61">
          <mxGeometry width="50" height="50" relative="1" as="geometry">
            <mxPoint x="750" y="575" as="sourcePoint" />
            <mxPoint x="800" y="525" as="targetPoint" />
          </mxGeometry>
        </mxCell>
        <mxCell id="7NwF8X2GStmhDMiwvxx_-82" value="" style="endArrow=classic;startArrow=classic;html=1;rounded=0;entryX=0.5;entryY=1;entryDx=0;entryDy=0;exitX=0.5;exitY=0;exitDx=0;exitDy=0;" edge="1" parent="1" source="7NwF8X2GStmhDMiwvxx_-67" target="7NwF8X2GStmhDMiwvxx_-63">
          <mxGeometry width="50" height="50" relative="1" as="geometry">
            <mxPoint x="360" y="865" as="sourcePoint" />
            <mxPoint x="410" y="815" as="targetPoint" />
          </mxGeometry>
        </mxCell>
        <mxCell id="7NwF8X2GStmhDMiwvxx_-83" value="" style="endArrow=classic;startArrow=classic;html=1;rounded=0;entryX=0.5;entryY=1;entryDx=0;entryDy=0;exitX=0.5;exitY=0;exitDx=0;exitDy=0;" edge="1" parent="1" source="7NwF8X2GStmhDMiwvxx_-80" target="7NwF8X2GStmhDMiwvxx_-67">
          <mxGeometry width="50" height="50" relative="1" as="geometry">
            <mxPoint x="610" y="1250" as="sourcePoint" />
            <mxPoint x="320" y="1470" as="targetPoint" />
          </mxGeometry>
        </mxCell>
        <mxCell id="7NwF8X2GStmhDMiwvxx_-84" value="" style="endArrow=classic;startArrow=classic;html=1;rounded=0;exitX=0.5;exitY=0;exitDx=0;exitDy=0;entryX=0.5;entryY=1;entryDx=0;entryDy=0;" edge="1" parent="1" source="7NwF8X2GStmhDMiwvxx_-63" target="7NwF8X2GStmhDMiwvxx_-62">
          <mxGeometry width="50" height="50" relative="1" as="geometry">
            <mxPoint x="240" y="655" as="sourcePoint" />
            <mxPoint x="290" y="605" as="targetPoint" />
          </mxGeometry>
        </mxCell>
        <mxCell id="7NwF8X2GStmhDMiwvxx_-85" value="&lt;font style=&quot;font-size: 17px;&quot;&gt;&lt;b&gt;Plot Analysis Page&lt;/b&gt;&lt;/font&gt;" style="text;html=1;align=center;verticalAlign=middle;whiteSpace=wrap;rounded=0;" vertex="1" parent="1">
          <mxGeometry x="520" y="910" width="180" height="30" as="geometry" />
        </mxCell>
        <mxCell id="7NwF8X2GStmhDMiwvxx_-86" value="&lt;b&gt;&lt;font style=&quot;font-size: 16px;&quot;&gt;Categorical Data&lt;/font&gt;&lt;/b&gt;" style="text;html=1;align=center;verticalAlign=middle;whiteSpace=wrap;rounded=0;" vertex="1" parent="1">
          <mxGeometry x="510" y="950" width="200" height="30" as="geometry" />
        </mxCell>
        <mxCell id="7NwF8X2GStmhDMiwvxx_-87" value="&lt;b&gt;&lt;font style=&quot;font-size: 16px;&quot;&gt;Numerical Data&lt;/font&gt;&lt;/b&gt;" style="text;html=1;align=center;verticalAlign=middle;whiteSpace=wrap;rounded=0;" vertex="1" parent="1">
          <mxGeometry x="520" y="1080" width="170" height="30" as="geometry" />
        </mxCell>
        <mxCell id="7NwF8X2GStmhDMiwvxx_-88" value="&lt;font style=&quot;font-size: 20px;&quot;&gt;&lt;b&gt;User Interface Streamlit&lt;/b&gt;&lt;/font&gt;" style="text;html=1;align=center;verticalAlign=middle;whiteSpace=wrap;rounded=0;" vertex="1" parent="1">
          <mxGeometry x="445" y="390" width="340" height="30" as="geometry" />
        </mxCell>
        <mxCell id="7NwF8X2GStmhDMiwvxx_-90" value="" style="curved=1;endArrow=classic;html=1;rounded=0;exitX=1;exitY=0.5;exitDx=0;exitDy=0;entryX=0;entryY=0.5;entryDx=0;entryDy=0;" edge="1" parent="1" source="7NwF8X2GStmhDMiwvxx_-63" target="7NwF8X2GStmhDMiwvxx_-13">
          <mxGeometry width="50" height="50" relative="1" as="geometry">
            <mxPoint x="860" y="780" as="sourcePoint" />
            <mxPoint x="910" y="730" as="targetPoint" />
            <Array as="points">
              <mxPoint x="910" y="780" />
              <mxPoint x="970" y="660" />
            </Array>
          </mxGeometry>
        </mxCell>
        <mxCell id="7NwF8X2GStmhDMiwvxx_-91" value="" style="curved=1;endArrow=classic;html=1;rounded=0;entryX=1;entryY=0.5;entryDx=0;entryDy=0;exitX=0.5;exitY=1;exitDx=0;exitDy=0;" edge="1" parent="1" source="7NwF8X2GStmhDMiwvxx_-17" target="7NwF8X2GStmhDMiwvxx_-18">
          <mxGeometry width="50" height="50" relative="1" as="geometry">
            <mxPoint x="1440" y="705" as="sourcePoint" />
            <mxPoint x="1490" y="655" as="targetPoint" />
            <Array as="points">
              <mxPoint x="1490" y="705" />
            </Array>
          </mxGeometry>
        </mxCell>
        <mxCell id="7NwF8X2GStmhDMiwvxx_-92" value="" style="curved=1;endArrow=classic;html=1;rounded=0;exitX=1;exitY=0.25;exitDx=0;exitDy=0;entryX=0.75;entryY=0;entryDx=0;entryDy=0;" edge="1" parent="1" source="7NwF8X2GStmhDMiwvxx_-13" target="7NwF8X2GStmhDMiwvxx_-17">
          <mxGeometry width="50" height="50" relative="1" as="geometry">
            <mxPoint x="1410" y="485" as="sourcePoint" />
            <mxPoint x="1460" y="435" as="targetPoint" />
            <Array as="points">
              <mxPoint x="1460" y="415" />
            </Array>
          </mxGeometry>
        </mxCell>
        <mxCell id="7NwF8X2GStmhDMiwvxx_-93" value="" style="curved=1;endArrow=classic;html=1;rounded=0;exitX=0.162;exitY=1.005;exitDx=0;exitDy=0;exitPerimeter=0;entryX=0;entryY=0.5;entryDx=0;entryDy=0;" edge="1" parent="1" source="7NwF8X2GStmhDMiwvxx_-13" target="7NwF8X2GStmhDMiwvxx_-18">
          <mxGeometry width="50" height="50" relative="1" as="geometry">
            <mxPoint x="1170" y="765" as="sourcePoint" />
            <mxPoint x="1220" y="715" as="targetPoint" />
            <Array as="points">
              <mxPoint x="1190" y="715" />
            </Array>
          </mxGeometry>
        </mxCell>
        <mxCell id="7NwF8X2GStmhDMiwvxx_-95" value="" style="curved=1;endArrow=classic;html=1;rounded=0;exitX=0.5;exitY=1;exitDx=0;exitDy=0;entryX=0.25;entryY=0;entryDx=0;entryDy=0;" edge="1" parent="1" source="7NwF8X2GStmhDMiwvxx_-19" target="7NwF8X2GStmhDMiwvxx_-22">
          <mxGeometry width="50" height="50" relative="1" as="geometry">
            <mxPoint x="1640" y="970" as="sourcePoint" />
            <mxPoint x="1690" y="920" as="targetPoint" />
            <Array as="points">
              <mxPoint x="1190" y="910" />
            </Array>
          </mxGeometry>
        </mxCell>
        <mxCell id="7NwF8X2GStmhDMiwvxx_-96" value="" style="curved=1;endArrow=classic;html=1;rounded=0;exitX=1;exitY=0.5;exitDx=0;exitDy=0;entryX=0.5;entryY=0;entryDx=0;entryDy=0;" edge="1" parent="1" source="7NwF8X2GStmhDMiwvxx_-22" target="7NwF8X2GStmhDMiwvxx_-23">
          <mxGeometry width="50" height="50" relative="1" as="geometry">
            <mxPoint x="1660" y="1010" as="sourcePoint" />
            <mxPoint x="1710" y="960" as="targetPoint" />
            <Array as="points">
              <mxPoint x="1440" y="975" />
            </Array>
          </mxGeometry>
        </mxCell>
        <mxCell id="7NwF8X2GStmhDMiwvxx_-97" value="" style="curved=1;endArrow=classic;html=1;rounded=0;entryX=1;entryY=0.5;entryDx=0;entryDy=0;exitX=0.5;exitY=1;exitDx=0;exitDy=0;" edge="1" parent="1" source="7NwF8X2GStmhDMiwvxx_-23" target="7NwF8X2GStmhDMiwvxx_-24">
          <mxGeometry width="50" height="50" relative="1" as="geometry">
            <mxPoint x="1420" y="1150" as="sourcePoint" />
            <mxPoint x="1470" y="1100" as="targetPoint" />
            <Array as="points">
              <mxPoint x="1440" y="1130" />
            </Array>
          </mxGeometry>
        </mxCell>
        <mxCell id="7NwF8X2GStmhDMiwvxx_-98" value="&lt;b&gt;&lt;font style=&quot;font-size: 18px;&quot;&gt;Page Navigation&lt;/font&gt;&lt;/b&gt;" style="text;html=1;align=center;verticalAlign=middle;whiteSpace=wrap;rounded=0;" vertex="1" parent="1">
          <mxGeometry x="525" y="425" width="170" height="30" as="geometry" />
        </mxCell>
        <mxCell id="7NwF8X2GStmhDMiwvxx_-99" value="" style="curved=1;endArrow=classic;html=1;rounded=0;entryX=0.5;entryY=1;entryDx=0;entryDy=0;exitX=0;exitY=0;exitDx=0;exitDy=0;" edge="1" parent="1" source="7NwF8X2GStmhDMiwvxx_-22" target="7NwF8X2GStmhDMiwvxx_-65">
          <mxGeometry width="50" height="50" relative="1" as="geometry">
            <mxPoint x="1010" y="790" as="sourcePoint" />
            <mxPoint x="1060" y="740" as="targetPoint" />
            <Array as="points">
              <mxPoint x="1190" y="870" />
            </Array>
          </mxGeometry>
        </mxCell>
        <mxCell id="7NwF8X2GStmhDMiwvxx_-102" value="" style="curved=1;endArrow=classic;html=1;rounded=0;entryX=0.75;entryY=1;entryDx=0;entryDy=0;exitX=0;exitY=0.5;exitDx=0;exitDy=0;" edge="1" parent="1" source="7NwF8X2GStmhDMiwvxx_-22" target="7NwF8X2GStmhDMiwvxx_-64">
          <mxGeometry width="50" height="50" relative="1" as="geometry">
            <mxPoint x="970" y="820" as="sourcePoint" />
            <mxPoint x="1020" y="770" as="targetPoint" />
            <Array as="points">
              <mxPoint x="950" y="860" />
            </Array>
          </mxGeometry>
        </mxCell>
        <mxCell id="7NwF8X2GStmhDMiwvxx_-104" value="" style="curved=1;endArrow=classic;html=1;rounded=0;exitX=0;exitY=0.75;exitDx=0;exitDy=0;entryX=1;entryY=0.5;entryDx=0;entryDy=0;" edge="1" parent="1" source="7NwF8X2GStmhDMiwvxx_-22" target="7NwF8X2GStmhDMiwvxx_-68">
          <mxGeometry width="50" height="50" relative="1" as="geometry">
            <mxPoint x="1190" y="1320" as="sourcePoint" />
            <mxPoint x="1240" y="1270" as="targetPoint" />
            <Array as="points">
              <mxPoint x="1170" y="1020" />
            </Array>
          </mxGeometry>
        </mxCell>
        <mxCell id="7NwF8X2GStmhDMiwvxx_-105" value="" style="curved=1;endArrow=classic;html=1;rounded=0;entryX=1;entryY=0.5;entryDx=0;entryDy=0;exitX=0.5;exitY=1;exitDx=0;exitDy=0;" edge="1" parent="1" source="7NwF8X2GStmhDMiwvxx_-22" target="7NwF8X2GStmhDMiwvxx_-74">
          <mxGeometry width="50" height="50" relative="1" as="geometry">
            <mxPoint x="1140" y="1270" as="sourcePoint" />
            <mxPoint x="1190" y="1220" as="targetPoint" />
            <Array as="points">
              <mxPoint x="1110" y="1130" />
            </Array>
          </mxGeometry>
        </mxCell>
        <mxCell id="7NwF8X2GStmhDMiwvxx_-106" value="" style="curved=1;endArrow=classic;html=1;rounded=0;entryX=1;entryY=0.5;entryDx=0;entryDy=0;" edge="1" parent="1" target="7NwF8X2GStmhDMiwvxx_-80">
          <mxGeometry width="50" height="50" relative="1" as="geometry">
            <mxPoint x="1250" y="1000" as="sourcePoint" />
            <mxPoint x="1280" y="1260" as="targetPoint" />
            <Array as="points">
              <mxPoint x="1220" y="1210" />
            </Array>
          </mxGeometry>
        </mxCell>
      </root>
    </mxGraphModel>
  </diagram>
</mxfile>
